<svg id="Laag_1" data-name="Laag 1" xmlns="http://www.w3.org/2000/svg" viewBox="0 0 136 262"><defs><style>.cls-1{fill:#353535;}</style></defs><path class="cls-1" d="M74.79,153.81l.07,48.05L79,199.45,79,156.2ZM62.14,45.71,62.07,2.46,57.91.06,58,48.12Zm66.64,38.34-.06-43.25-4.17-2.39.07,48.05Zm-83.23.12-.06-43.24-4.17-2.4.07,48.05ZM12.23,65l-.06-43.25L8,19.36l.07,48.05Zm91.52-19.36L103.69,2.4,99.53,0l.07,48.05Zm16.67,9.59L120.35,12l-4.16-2.39.07,48.05ZM87.17,84.11,87.1,40.86l-4.16-2.39L83,86.52ZM70.51,74.53l-.07-43.25-4.16-2.4.07,48.05ZM37.18,55.35l-.06-43.24L33,9.71,33,57.76ZM20.52,45.77,20.46,2.52,16.29.12l.08,48.06ZM62.14,219.59l-.07-43.25L57.91,174,58,222Zm66.64,38.34-.06-43.24-4.17-2.4.07,48Zm-83.23.13-.06-43.25-4.17-2.4.07,48.06ZM12.23,238.89l-.06-43.25L8,193.24l.07,48,4.16-2.4Zm91.52-19.36-.06-43.25-4.16-2.4.07,48.06Zm16.67,9.58-.07-43.24-4.16-2.4.07,48.05ZM87.17,258l-.07-43.24-4.16-2.4.07,48Zm-16.66-9.58-.07-43.25-4.16-2.39.07,48ZM37.18,229.24,37.12,186,33,183.59,33,231.65Zm-16.66-9.59-.06-43.25L16.29,174l.08,48.05ZM74.79,71.21l.07,48.06L79,116.86,79,73.61ZM62.14,137l-.07-43.25-4.16-2.4L58,139.4Zm66.64,38.34-.06-43.25-4.17-2.4.07,48.06Zm-83.23.12-.06-43.24-4.17-2.4.07,48.05ZM12.23,156.29,12.17,113,8,110.65l.07,48Zm91.52-19.36-.06-43.24-4.16-2.4.07,48.05,4.15-2.41Zm16.67,9.59-.07-43.25-4.16-2.4.07,48.06ZM87.17,175.4l-.07-43.25-4.16-2.39L83,177.81Zm-16.66-9.59-.07-43.24-4.16-2.4.07,48.05,4.16-2.41ZM37.18,146.64l-.06-43.24L33,101,33,149.05l4.15-2.41Zm-16.66-9.58-.06-43.25-4.17-2.4.08,48.06Z"/></svg>